<svg width="36" height="63" viewBox="0 0 36 63" fill="none" xmlns="http://www.w3.org/2000/svg">
<g clip-path="url(#clip0_1_14)">
<path d="M18.5462 21.1992C17.3663 21.1992 16.1864 21.1992 15.0065 21.1992C10.4825 21.1992 7.30984 24.8075 4.27033 27.798C2.25873 29.7772 0.947577 32.6442 1.03541 35.4985C1.08114 36.9848 2.14549 38.2893 3.08654 39.3547C4.93585 41.4482 7.30951 43.1797 9.91974 44.1836C14.4652 45.9319 19.6338 46.4399 24.1253 44.2774C26.4221 43.1715 29.0101 41.5958 30.6186 39.5774C32.3289 37.4311 32.6814 35.1369 32.6814 32.4746C32.6814 28.7877 31.3018 25.9401 27.9111 24.2701C25.062 22.8668 21.9302 22.0431 18.7572 22.0431" stroke="#FE019A" stroke-width="2" stroke-linecap="round"/>
<path d="M9.05078 24.1523C9.05078 26.314 9.89778 28.3217 10.2229 30.4347C10.5787 32.7477 10.428 35.1854 10.9495 37.4671C11.0996 38.1236 11.2497 38.7616 11.3246 39.4362C11.4502 40.5663 10.9696 42.4317 11.5825 43.3509" stroke="#FE019A" stroke-width="2" stroke-linecap="round"/>
<path d="M14.3262 22.6719C14.3262 24.6425 14.6715 26.5106 15.0529 28.4385C15.8247 32.3407 16.2138 36.2792 16.4125 40.253C16.5228 42.4599 16.3545 44.5414 16.8579 46.7229" stroke="#FE019A" stroke-width="2" stroke-linecap="round"/>
<path d="M18.9668 24.1523C19.4768 26.0902 20.5083 27.9668 21.182 29.8603C22.1966 32.7123 22.8887 35.4966 23.3972 38.4751C23.698 40.237 23.8822 41.9974 24.0302 43.7729" stroke="#FE019A" stroke-width="2" stroke-linecap="round"/>
<path d="M14.3262 33.8594C14.3262 35.9613 14.3262 38.0632 14.3262 40.1651C14.3262 43.6739 15.0558 46.6578 16.5297 49.8582C18.6462 54.4541 22.3081 60.675 27.7113 61.661C29.4909 61.9858 32.6128 62.1774 33.4779 60.0435C34.5686 57.3531 34.1022 53.2091 33.2903 50.5028C31.5361 44.6554 25.8201 40.6494 21.2883 37.024" stroke="#FE019A" stroke-width="2" stroke-linecap="round"/>
<path d="M9.68526 22.6757C9.68526 19.8296 9.35351 16.8014 9.73214 13.9789C10.227 10.29 12.6816 5.19839 15.7097 2.93795C19.5473 0.0732511 24.1185 4.13448 25.9537 7.6497C26.9827 9.6209 27.6056 12.9319 27.0554 15.151C26.4471 17.6043 24.7319 19.798 23.6095 22.0428" stroke="#FE019A" stroke-width="2" stroke-linecap="round"/>
<path d="M4.83203 32.3805C5.32672 32.3805 5.85879 31.6023 5.41807 31.1616C5.11024 30.8537 5.4739 32.2429 5.8869 32.3805" stroke="#FE019A" stroke-width="2" stroke-linecap="round"/>
<path d="M2.7207 38.0745C3.50697 38.0745 5.29503 38.3926 5.97907 37.9573C6.4965 37.628 6.81072 37.1083 7.15115 36.5977" stroke="#FE019A" stroke-width="2" stroke-linecap="round"/>
</g>
<defs>
<clipPath id="clip0_1_14">
<rect width="36" height="63" fill="white"/>
</clipPath>
</defs>
</svg>
