<svg width="40" height="74" viewBox="0 0 40 74" fill="none" xmlns="http://www.w3.org/2000/svg">
<g clip-path="url(#clip0_1_8)">
<path d="M21.1172 31.7617V72.8254" stroke="#FE019A" stroke-width="2" stroke-linecap="round"/>
<path d="M19.7714 30.2777C18.5481 32.602 15.858 33.6506 13.4706 34.372C11.7306 34.8977 6.02408 36.8152 5.67433 33.3177C5.31392 29.7137 6.15759 27.3339 9.15569 25.2027C10.1073 24.5263 11.3082 23.7594 12.3919 23.4498C12.7997 23.3333 13.9235 22.7208 13.5442 22.9104C11.9142 23.7254 9.93644 23.916 8.17502 24.2711C6.8083 24.5467 3.62386 25.1605 2.70781 23.6582C1.27117 21.3021 1.95756 17.0333 3.713 15.0529C5.12578 13.459 6.24326 13.6303 8.15051 14.2193C9.44171 14.6181 10.7014 15.0296 11.9261 15.6045C12.5253 15.8858 14.2176 16.9278 13.6667 16.5606C12.3719 15.6974 10.5231 13.6487 10.1118 12.1354C9.36178 9.37519 11.5295 5.69936 14.2184 4.82943C16.622 4.05177 18.6518 8.7972 19.1094 10.6276C19.277 11.2978 19.4189 11.8253 19.7714 10.8605C20.1342 9.86762 20.587 8.91546 21.1688 8.02885C22.5527 5.92009 24.673 2.75946 27.1264 1.76485C28.8347 1.0723 31.6364 2.26591 32.6304 3.70166C33.8063 5.40028 32.8033 7.09589 31.5394 8.35982C29.8806 10.0185 28.0163 11.4416 26.3664 13.0915C26.1198 13.3381 23.9575 15.1305 24.8954 14.7832C25.387 14.6011 25.7735 14.1725 26.2438 13.9374C27.6458 13.2363 29.1942 13.0068 30.7303 12.7973C32.7451 12.5226 37.03 11.7001 37.595 14.8077C37.7897 15.8785 36.0848 16.4284 35.413 16.7445C33.6273 17.5848 31.9555 18.6449 30.191 19.5271C29.2007 20.0223 27.9156 20.7898 26.7586 20.7898C26.3956 20.7898 27.4781 20.9036 27.8251 21.0104C29.882 21.6433 31.7556 23.0738 33.1575 24.6634C34.5049 26.1912 35.6582 27.7378 35.6582 29.8119C35.6582 31.2884 34.1704 30.9676 33.0349 31.3074C31.0599 31.8984 29.3074 32.7683 27.3838 31.6996C26.2673 31.0794 25.1142 30.2746 24.1844 29.3951C24.0049 29.2253 22.6937 28.0481 22.6521 28.1938" stroke="#FE019A" stroke-width="2" stroke-linecap="round"/>
<path d="M19.548 17.9861C19.0827 17.9861 18.6103 17.9611 18.146 17.9921C17.5365 18.0327 17.6143 18.6203 17.4781 19.0872C17.195 20.0579 16.9897 20.8831 17.1412 21.9031C17.4426 23.9332 18.3226 24.9585 20.3482 25.3268C21.4271 25.523 22.3881 25.5332 22.8573 24.4122C23.1921 23.6124 23.4609 22.5994 23.2905 21.7286C23.0566 20.5328 22.1493 18.8525 20.7393 18.8525" stroke="#FE019A" stroke-width="2" stroke-linecap="round"/>
<path d="M21.4471 52.6493C21.4471 50.657 21.57 49.294 22.5375 47.4539C23.9422 44.7821 25.6752 42.4713 27.458 40.0684C29.2487 37.655 32.7619 37.1819 35.5216 37.1454C36.6315 37.1307 38.4354 37.2919 38.4354 38.7947C38.4354 40.3939 36.7371 42.0577 35.7781 43.1655C33.6238 45.6541 30.6695 46.9864 27.7696 48.4618C26.3586 49.1796 25.062 50.0826 23.6829 50.8534C23.4528 50.9819 23.2505 50.9756 23.0598 51.1283C22.7741 51.3568 22.3347 51.5782 22.0152 51.8155C21.9015 51.8999 21.1172 52.4996 21.1172 52.3195" stroke="#FE019A" stroke-width="2" stroke-linecap="round"/>
<path d="M21.1162 56.9579C21.055 56.5292 20.8295 56.1073 20.6393 55.7268C19.6653 53.7787 18.1726 52.171 16.6519 50.6358C15.4042 49.3762 14.085 48.246 12.6146 47.2584C12.1205 46.9266 11.6291 46.6958 11.034 46.6317C10.5764 46.5824 8.5045 46.2209 8.26116 46.8536C8.12219 47.2149 8.49317 47.6764 8.61609 47.996C8.79482 48.4607 8.82297 48.9788 8.94329 49.4601C9.17408 50.3832 9.71023 51.1952 10.2077 51.9945C11.4724 54.0263 12.9845 56.2841 15.1213 57.4903C16.6323 58.3433 18.4773 57.8563 20.118 57.8563" stroke="#FE019A" stroke-width="2" stroke-linecap="round"/>
</g>
<defs>
<clipPath id="clip0_1_8">
<rect width="40" height="74" fill="white"/>
</clipPath>
</defs>
</svg>
