<svg width="192" height="72" viewBox="0 0 192 72" fill="none" xmlns="http://www.w3.org/2000/svg">
<path d="M20.8133 6.83641C17.2984 6.83641 13.38 6.23102 10.1132 7.70106C5.61183 9.72668 1.35859 14.2277 1.35859 19.482C1.35859 22.8862 0.00855827 29.4347 2.54748 32.1275C4.64739 34.3547 7.77113 38.9366 11.0859 38.9366C17.6668 38.9366 19.5522 34.1452 23.6234 30.0739C26.0912 27.6061 22.4907 27.7981 20.8133 27.7502C18.1604 27.6744 15.0315 27.1199 12.545 26.2911" stroke="#FE019A" stroke-width="2" stroke-linecap="round"/>
<path d="M32.9724 18.5092C32.9724 21.2786 31.4487 29.8413 34.9449 31.3709C38.6089 32.9739 44.1589 32.4571 44.1589 27.6421C44.1589 25.1123 45.523 17.5365 40.9705 17.5365C38.1265 17.5365 35.8236 17.3268 33.4588 18.5092" stroke="#FE019A" stroke-width="2" stroke-linecap="round"/>
<path d="M50.968 18.9956C50.968 21.5074 48.2694 26.3591 51.2112 27.9934C52.9271 28.9466 53.788 29.2093 55.8317 29.2093C58.5483 29.2093 58.0204 27.7332 59.3443 25.9128C60.1855 24.7562 61.0569 14.6183 59.4794 14.6183C55.9394 14.6183 54.754 16.6162 51.9408 18.0229" stroke="#FE019A" stroke-width="2" stroke-linecap="round"/>
<path d="M66.5318 17.5365C66.5318 22.4357 67.0181 27.2484 67.0181 32.1275" stroke="#FE019A" stroke-width="2" stroke-linecap="round"/>
<path d="M67.5045 17.5365C70.8238 17.5365 77.6022 16.2888 80.5283 18.0228C84.4223 20.3304 84.041 22.6503 84.041 27.0206C84.041 30.0362 79.1459 30.6684 76.9887 30.6684C75.5941 30.6684 74.4429 31.6411 73.0977 31.6411C71.7197 31.6411 70.3416 31.6411 68.9636 31.6411" stroke="#FE019A" stroke-width="2" stroke-linecap="round"/>
<path d="M103.496 4.89093C103.496 14.0508 103.496 23.2108 103.496 32.3707C103.496 33.0603 105.677 31.5994 106.684 31.3979C109.737 30.7873 113.032 31.1547 116.141 31.1547C118.629 31.1547 121.067 31.6411 123.437 31.6411" stroke="#FE019A" stroke-width="2" stroke-linecap="round"/>
<path d="M129.273 18.5092C129.273 21.889 129.249 24.9364 130.354 28.1285C131.031 30.0843 135.745 29.2093 137.541 29.2093C140.457 29.2093 142.405 25.5844 142.405 22.9946C142.405 21.4184 142.405 19.8422 142.405 18.266C142.405 17.3726 141.335 16.3684 140.946 15.591" stroke="#FE019A" stroke-width="2" stroke-linecap="round"/>
<path d="M156.51 19.482C151.794 19.482 145.971 24.8299 148.241 29.9389C149.492 32.7535 152.338 33.5866 155.159 33.5866C157.037 33.5866 162.125 34.2488 162.832 32.1275" stroke="#FE019A" stroke-width="2" stroke-linecap="round"/>
<path d="M165.264 8.78189C165.264 12.6364 165.245 16.5332 166.48 20.2385C167.087 22.0585 168.182 24.8315 168.182 26.7775C168.182 29.5604 170.128 32.2364 170.128 35.0457" stroke="#FE019A" stroke-width="2" stroke-linecap="round"/>
<path d="M175.478 12.1864C175.478 14.8883 172.372 16.4591 172.073 18.9956C171.915 20.345 169.463 21.7881 168.777 22.8865C167.875 24.329 169.303 23.8592 170.668 23.8592C173.049 23.8592 176.202 23.2622 178.396 24.2375C179.914 24.912 181.282 25.5451 182.773 26.2911" stroke="#FE019A" stroke-width="2" stroke-linecap="round"/>
<path d="M184.719 1C184.719 3.55793 184.719 6.11586 184.719 8.67379C184.719 11.8723 185.341 13.6473 186.07 16.5637C186.614 18.7414 186.676 21.4506 187.637 23.3729" stroke="#FE019A" stroke-width="2" stroke-linecap="round"/>
<path d="M187.637 27.2638C188.448 27.2638 189.258 27.2638 190.069 27.2638C190.295 27.2638 189.453 27.612 188.988 28.1285C187.628 29.6395 188.097 30.182 190.069 30.182" stroke="#FE019A" stroke-width="2" stroke-linecap="round"/>
<path d="M50.3695 43.54C49.9588 50.7956 48.8029 57.2756 47.4266 64.3097C47.1315 65.818 46.8041 67.4706 46.8041 69.007" stroke="#FE019A" stroke-width="2" stroke-linecap="round"/>
<path d="M52.4069 44.0493C52.4069 50.8493 58.5501 53.1105 61.0939 58.6221C62.555 61.7877 64.7632 64.9419 66.5552 67.9883C67.2889 69.2355 66.9684 63.1061 66.6684 62.1309C66.0462 60.1089 66.159 58.1441 66.159 56.0471C66.159 52.3874 66.159 48.7277 66.159 45.068" stroke="#FE019A" stroke-width="2" stroke-linecap="round"/>
<path d="M79.4019 52.7081C76.6899 55.2606 74.3085 56.5136 74.3085 60.8575C74.3085 62.9019 74.2759 64.3013 75.4403 65.9509C78.4996 70.2849 92.2484 72.8846 93.1824 65.4133C93.4725 63.0922 93.5002 61.358 92.8994 59.0749C92.3219 56.8805 91.1837 56.61 89.8433 54.9718C87.6117 52.2443 83.765 52.1988 80.4206 52.1988" stroke="#FE019A" stroke-width="2" stroke-linecap="round"/>
<path d="M94.6821 48.6334C95.0399 52.927 98.5159 56.2521 98.7568 60.3482C98.8384 61.7354 100.202 63.4381 100.285 64.9323C100.36 66.2935 100.843 69.455 101.926 68.1015C104.307 65.1255 104.657 60.2928 107.019 57.4054C108.211 55.9495 110.981 51.0677 110.981 49.1427" stroke="#FE019A" stroke-width="2" stroke-linecap="round"/>
<path d="M119.64 51.1801C117.273 54.9166 115.155 58.9786 113.414 62.8949C112.701 64.5012 111.49 66.2975 111.49 67.9883" stroke="#FE019A" stroke-width="2" stroke-linecap="round"/>
<path d="M121.677 50.6707C125.277 56.1772 126.774 62.9047 128.808 69.007" stroke="#FE019A" stroke-width="2" stroke-linecap="round"/>
<path d="M115.056 61.8762C118.499 61.5893 121.992 59.3295 125.242 59.3295" stroke="#FE019A" stroke-width="2" stroke-linecap="round"/>
</svg>
