<svg width="56" height="49" viewBox="0 0 56 49" fill="none" xmlns="http://www.w3.org/2000/svg">
<g clip-path="url(#clip0_1_54)">
<path d="M15.1966 47.294C15.1966 44.013 15.2945 40.7151 15.1966 37.4354C15.0914 33.9145 13.1307 30.0657 11.7396 26.9207C10.2001 23.44 8.22846 19.5521 5.96213 16.4859C4.85027 14.9816 3.23621 13.914 2.13713 12.5009C0.55186 10.4627 6.53916 15.233 8.5228 16.886C14.5831 21.9363 19.7102 28.1571 20.606 36.2191C20.7336 37.3674 20.9581 38.5198 20.9581 39.676C20.9581 41.2394 20.9741 39.877 20.9581 39.0358C20.8507 33.3985 20.2357 27.5496 19.5177 21.9594C18.9708 17.7017 17.2707 14.1372 15.6447 10.2123C15.1369 8.9867 13.1698 5.51913 13.8202 6.67536C14.1511 7.26356 15.2772 7.7335 15.7567 8.13174C18.2195 10.1771 20.1433 12.7358 21.6622 15.5417C25.0483 21.7965 26.9167 28.3253 27.7278 35.3549C28.0105 37.8051 28.4655 40.2418 28.8961 42.6688C29.1884 44.3159 30.0257 47.9293 29.8244 44.0291C29.4397 36.5761 29.1114 28.805 30.6726 21.4632C31.6574 16.8321 33.7299 10.656 37.8905 7.79565C38.0336 7.69726 41.0263 6.41823 40.9953 6.38728C40.48 5.87196 39.265 8.25083 39.2028 8.3558C36.1952 13.4377 34.1234 19.1031 32.8332 24.8561C31.6248 30.2441 31.6169 35.5818 31.6169 41.0684C31.6169 41.848 30.9919 47.1148 32.017 44.3812C34.9127 36.6592 37.5048 28.8234 40.5152 21.1431C42.926 14.9925 45.2913 8.00843 50.4538 3.55454C51.4888 2.66163 52.6878 1.6931 54.0227 1.26594C54.4237 1.13762 53.7535 2.06987 53.5426 2.43425C51.9732 5.14496 50.5497 7.9521 49.1895 10.7724C46.6225 16.0947 44.622 21.4285 43.2999 27.1927C42.3794 31.2061 40.8004 35.1469 40.1471 39.2119C39.7797 41.4977 39.683 48.4568 39.683 46.1417" stroke="#FE019A" stroke-width="2" stroke-linecap="round"/>
</g>
<defs>
<clipPath id="clip0_1_54">
<rect width="56" height="49" fill="white"/>
</clipPath>
</defs>
</svg>
