<svg width="50" height="62" viewBox="0 0 50 62" fill="none" xmlns="http://www.w3.org/2000/svg">
<path d="M3.33223 2.24064C5.10284 2.24064 6.77251 1.65682 8.49804 1.53358C10.7172 1.37508 12.9346 1.35681 15.1763 1.35681C16.6207 1.35681 18.2958 1.39203 19.6841 1.70052C20.2421 1.82452 21.549 1.91554 21.9724 2.33885C22.5715 2.93793 22.5109 4.02673 22.817 4.71538C23.8708 7.08636 23.4848 10.0448 23.4848 12.5717C23.4848 14.6686 23.308 16.882 23.308 19.0335C23.308 20.8337 23.7746 23.7564 22.5125 25.2989C21.7733 26.2023 21.0877 27.0869 20.2635 27.9111C18.9157 29.2588 17.4259 30.0777 15.8441 31.1322C14.0775 32.3098 12.8896 34.127 11.2479 35.3746C10.6139 35.8564 10.0965 36.6203 9.5587 37.2011C8.26331 38.6001 6.89922 40.0661 5.72854 41.5712C4.89728 42.6399 3.41452 43.4675 2.35996 44.3111C1.93869 44.6481 1.56447 43.025 1.56447 42.6318C1.56447 41.7664 1.54045 40.8788 1.56447 39.9901C1.57976 39.4242 1.77092 38.7209 2.00641 38.2028C2.29271 37.573 2.19413 36.7135 2.31086 36.0423C2.66925 33.9817 2.52028 31.6485 2.31086 29.5805C2.13061 27.8007 2.42023 26.0491 2.44835 24.2775C2.48024 22.2686 2.44835 20.2569 2.44835 18.2478C2.44835 15.5441 1.91802 12.8907 1.91802 10.205C1.91802 9.39498 1.59448 8.66829 1.56447 7.85789C1.53703 7.11711 1.61332 6.77663 1.74124 6.04112C1.83776 5.48619 2.19664 4.3698 2.54656 3.91993C2.7319 3.68164 2.90489 3.47323 3.11617 3.26196C3.45761 2.92055 4.05368 3.2869 4.39289 2.94771" stroke="#FE019A" stroke-width="2" stroke-linecap="round"/>
<path d="M28.6076 2.22679C31.0582 1.95833 33.6005 1.53503 36.0819 1.53503C37.3986 1.53503 38.6247 1.3621 39.9312 1.3621C41.1515 1.3621 42.3842 1.01622 43.6051 1.01622C44.0463 1.01622 44.6403 0.886253 44.8816 1.3621C45.5653 2.71015 43.1026 4.03837 42.2115 4.91693C40.8382 6.27093 39.3989 7.67074 38.0017 9.04822C36.6123 10.418 35.297 11.8943 33.6944 13.0354C32.6044 13.8116 31.7799 14.9571 30.7125 15.7544C30.0405 16.2562 29.5762 16.9131 28.9974 17.4837C28.7542 17.7235 27.9193 19.1167 27.4771 18.9921C26.3958 18.6875 27.4815 15.8569 27.5454 15.322C27.8747 12.5622 28.0813 9.9076 28.0813 7.10747C28.0813 5.94147 27.7695 2.7456 29.4846 2.7456" stroke="#FE019A" stroke-width="2" stroke-linecap="round"/>
<path d="M47.8458 6.35681C47.8458 9.5222 48.5538 12.5878 48.5538 15.7587C48.5538 17.2298 48.4954 18.6166 48.3866 20.0703C48.235 22.0959 47.8916 24.1527 47.8458 26.1922C47.7416 30.8362 46.2529 35.2621 46.2529 39.9057C46.2529 41.5643 46.6069 43.2185 46.6069 44.8986C46.6069 45.7701 45.7699 45.2002 45.2893 44.811C44.6365 44.2824 43.9939 43.7532 43.3326 43.2441C42.5582 42.6479 41.9775 41.9305 41.2972 41.2196C40.6033 40.4947 39.6046 39.5619 39.2126 38.6307C38.8968 37.8806 37.8623 37.4417 37.4427 36.762C36.8727 35.8388 35.9228 35.0241 35.1418 34.251C33.6828 32.8068 32.6445 30.9519 31.3856 29.3943C30.6664 28.5044 29.2565 28.2876 28.7701 27.2044C28.5702 26.7593 28.5538 26.3924 28.5538 25.8808C28.5538 25.399 29.1639 23.9883 29.5272 23.7006C29.9051 23.4014 30.3636 22.6248 30.599 22.1921C31.1864 21.1123 32.3128 20.4369 32.8901 19.4085C33.362 18.5676 34.2324 18.0417 34.9255 17.3938C35.6191 16.7454 36.203 15.9702 36.9314 15.3694C38.2174 14.3086 39.3655 13.0509 40.6777 12.0408C42.0908 10.9528 43.2731 9.63055 44.837 8.77054C45.6324 8.33311 46.5585 7.23276 47.4918 7.23276" stroke="#FE019A" stroke-width="2" stroke-linecap="round"/>
<path d="M30.452 3.38692C33.298 3.30302 36.0369 3.38692 38.8127 3.38692C39.5281 3.38692 39.8686 3.18384 40.514 3.03585C40.8382 2.96152 41.2331 3.02582 41.564 3.02582C42.3337 3.02582 41.9687 3.02083 41.3598 3.28661C39.47 4.11154 37.6842 4.56047 35.624 4.69088C33.9438 4.79723 31.8165 4.57538 30.2867 5.46323C30.1401 5.5483 29.2302 5.89275 29.6937 5.92463C31.8409 6.07232 33.9799 6.34351 36.1003 6.71704C36.8018 6.84061 37.5011 6.81734 38.21 6.81734C40.0429 6.81734 34.5699 7.26776 32.7463 7.45929C32.1409 7.52287 31.5754 7.72008 30.977 7.72008C29.8948 7.72008 29.9695 7.99018 31.0839 8.16142C31.8656 8.28154 32.6624 8.31957 33.4269 8.43225C33.8867 8.50003 34.2288 8.73064 34.6518 8.80337C35.1815 8.89447 33.5289 8.98392 33.4269 8.98392C31.7839 8.98392 30.1921 8.67076 28.566 8.62283C26.4991 8.5619 32.6329 9.51573 34.5449 10.328C35.2405 10.6236 35.2317 10.6806 34.2824 10.7894C32.8821 10.9499 31.5989 11.1505 30.1798 11.1505C29.8964 11.1505 28.7434 11.2232 29.6743 11.5517C30.6979 11.913 31.7979 12.0629 32.863 12.2238C32.9235 12.2329 34.8668 12.3064 34.0102 12.6852C33.5195 12.9021 30.4057 13.3757 30.4617 13.5779C30.6082 14.1068 32.424 13.6851 32.6005 14.0493C32.6453 14.1418 31.3784 14.3571 31.3464 14.3603C29.84 14.5083 28.3526 14.6559 26.8549 14.9019C25.2505 15.1655 26.235 15.3363 27.1271 15.5238C27.4803 15.598 28.0883 15.7625 28.3035 16.0955C28.383 16.2186 27.3973 16.4502 27.3119 16.4767C26.9734 16.5815 26.5322 16.7373 27.166 16.7475C28.1411 16.7632 29.1175 16.721 30.0923 16.7575C31.1213 16.7961 30.5587 17.1483 30.452 16.9281" stroke="#FE019A" stroke-width="2" stroke-linecap="round"/>
<path d="M5 49.8965C5.03459 53.3553 5.53682 56.6627 5.53682 60.0961" stroke="#FE019A" stroke-width="2" stroke-linecap="round"/>
<path d="M11.9786 52.0438C10.9981 52.8609 9.60874 53.6351 8.48932 54.2507C8.09497 54.4676 6.23483 55.7567 7.35604 55.8016C9.44975 55.8853 11.5009 57.5312 13.5891 57.9488" stroke="#FE019A" stroke-width="2" stroke-linecap="round"/>
<path d="M16.2732 50.9702C17.3708 51.8239 17.2312 54.7363 17.824 56.07C18.0581 56.5968 18.152 57.6359 18.152 58.2172" stroke="#FE019A" stroke-width="2" stroke-linecap="round"/>
<path d="M24.3255 50.4334C24.1738 53.1633 23.2518 55.7302 23.2518 58.4857" stroke="#FE019A" stroke-width="2" stroke-linecap="round"/>
<path d="M25.6675 50.4334C25.6675 52.1136 26.5687 53.1523 27.3376 54.4595C27.6648 55.0158 28.5962 55.2034 28.9481 55.8015C29.1839 56.2025 29.921 56.9976 30.3796 57.1287C31.1752 57.356 30.6207 53.4644 30.5138 52.9832C30.22 51.6612 30.7673 50.3513 30.7673 49.0913" stroke="#FE019A" stroke-width="2" stroke-linecap="round"/>
<path d="M34.2566 49.3597C34.2566 52.1628 34.525 54.9353 34.525 57.6804" stroke="#FE019A" stroke-width="2" stroke-linecap="round"/>
<path d="M34.525 49.0913C36.1735 48.9265 38.3967 48.8025 39.416 50.4334C40.095 51.5198 42.516 52.7616 41.1756 54.3999C40.4422 55.2962 36.6783 58.4916 35.5986 57.412" stroke="#FE019A" stroke-width="2" stroke-linecap="round"/>
</svg>
