<svg width="196" height="245" viewBox="0 0 196 245" fill="none" xmlns="http://www.w3.org/2000/svg">
<path d="M11.1138 8.96258C18.1962 8.96258 24.8749 6.62729 31.777 6.13431C40.6536 5.50031 49.5231 5.42725 58.4899 5.42725C64.2675 5.42725 70.9679 5.56812 76.5212 6.8021C78.7533 7.2981 83.9809 7.66215 85.6743 9.35539C88.0707 11.7517 87.8283 16.1069 89.0527 18.8615C93.268 28.3454 91.724 40.1793 91.724 50.2867C91.724 58.6742 91.0168 67.528 91.0168 76.1339C91.0168 83.3346 92.8831 95.0257 87.8349 101.195C84.8779 104.809 82.1358 108.348 78.8389 111.644C73.4475 117.035 67.4886 120.311 61.1612 124.529C54.0947 129.239 49.3431 136.508 42.7764 141.498C40.2403 143.426 38.1709 146.481 36.0196 148.805C30.8381 154.4 25.3817 160.265 20.699 166.285C17.3739 170.56 11.4429 173.87 7.22468 177.244C5.53961 178.592 4.0427 172.1 4.0427 170.527C4.0427 167.066 3.94662 163.515 4.0427 159.96C4.10388 157.697 4.8685 154.883 5.81047 152.811C6.95569 150.292 6.56136 146.854 7.02826 144.169C8.46184 135.927 7.86596 126.594 7.02826 118.322C6.30728 111.203 7.46575 104.196 7.57824 97.1102C7.70579 89.0746 7.57824 81.0275 7.57824 72.9913C7.57824 62.1762 5.45692 51.563 5.45692 40.8198C5.45692 37.5799 4.16277 34.6731 4.0427 31.4316C3.93295 28.4684 4.23812 27.1065 4.74981 24.1645C5.13587 21.9448 6.57138 17.4792 7.97107 15.6797C8.71245 14.7266 9.4044 13.8929 10.2495 13.0478C11.6153 11.6822 13.9996 13.1476 15.3564 11.7908" stroke="#FE019A" stroke-width="8" stroke-linecap="round"/>
<path d="M112.215 8.90714C122.018 7.83331 132.187 6.14014 142.113 6.14014C147.379 6.14014 152.283 5.44839 157.51 5.44839C162.391 5.44839 167.322 4.06488 172.205 4.06488C173.97 4.06488 176.346 3.54501 177.311 5.44839C180.046 10.8406 170.195 16.1535 166.631 19.6677C161.138 25.0837 155.38 30.683 149.792 36.1929C144.234 41.6721 138.973 47.577 132.563 52.1416C128.202 55.2462 124.904 59.8284 120.635 63.0174C117.947 65.0249 116.09 67.6522 113.774 69.935C112.802 70.8939 109.462 76.4667 107.693 75.9686C103.368 74.7502 107.711 63.4276 107.966 61.2881C109.284 50.2486 110.11 39.6304 110.11 28.4299C110.11 23.7659 108.863 10.9824 115.723 10.9824" stroke="#FE019A" stroke-width="8" stroke-linecap="round"/>
<path d="M189.168 25.4272C189.168 38.0888 192 50.351 192 63.0347C192 68.9191 191.767 74.4666 191.331 80.2812C190.725 88.3835 189.351 96.6109 189.168 104.769C188.751 123.345 182.796 141.048 182.796 159.623C182.796 166.257 184.212 172.874 184.212 179.595C184.212 183.08 180.864 180.801 178.942 179.244C176.331 177.129 173.76 175.013 171.115 172.976C168.017 170.592 165.695 167.722 162.973 164.879C160.198 161.979 156.203 158.247 154.635 154.523C153.372 151.522 149.234 149.767 147.556 147.048C145.276 143.355 141.476 140.096 138.352 137.004C132.516 131.227 128.363 123.808 123.327 117.577C120.451 114.018 114.811 113.15 112.865 108.818C112.066 107.037 112 105.57 112 103.523C112 101.596 114.44 95.9534 115.894 94.8025C117.405 93.6057 119.239 90.4993 120.181 88.7682C122.53 84.4494 127.036 81.7477 129.345 77.6339C131.233 74.2706 134.714 72.1668 137.487 69.5752C140.261 66.9816 142.597 63.8808 145.51 61.4775C150.655 57.2343 155.247 52.2037 160.496 48.163C166.148 43.8114 170.877 38.5222 177.133 35.0822C180.315 33.3324 184.019 28.931 187.752 28.931" stroke="#FE019A" stroke-width="8" stroke-linecap="round"/>
<path d="M119.593 13.5477C130.977 13.2121 141.933 13.5477 153.036 13.5477C155.897 13.5477 157.259 12.7354 159.841 12.1434C161.138 11.8461 162.717 12.1033 164.041 12.1033C167.12 12.1033 165.66 12.0833 163.224 13.1465C155.665 16.4462 148.521 18.2419 140.281 18.7635C133.56 19.1889 125.051 18.3015 118.932 21.8529C118.345 22.1932 114.706 23.571 116.56 23.6985C125.148 24.2893 133.704 25.374 142.186 26.8681C144.992 27.3624 147.789 27.2694 150.625 27.2694C157.957 27.2694 136.064 29.0711 128.77 29.8372C126.349 30.0915 124.086 30.8803 121.693 30.8803C117.364 30.8803 117.663 31.9607 122.12 32.6457C125.247 33.1262 128.434 33.2783 131.492 33.729C133.332 34.0001 134.7 34.9225 136.392 35.2135C138.511 35.5779 131.9 35.9357 131.492 35.9357C124.921 35.9357 118.553 34.683 112.049 34.4913C103.781 34.2476 128.316 38.0629 135.964 41.312C138.747 42.4942 138.712 42.7223 134.914 43.1576C129.313 43.7997 124.181 44.602 118.504 44.602C117.37 44.602 112.759 44.8927 116.482 46.2069C120.576 47.6521 124.976 48.2518 129.237 48.8951C129.479 48.9316 137.252 49.2254 133.825 50.7407C131.863 51.6084 119.408 53.5027 119.632 54.3115C120.218 56.4272 127.481 54.7403 128.187 56.1972C128.366 56.5671 123.298 57.4284 123.17 57.441C117.145 58.0331 111.195 58.6234 105.205 59.6076C98.7867 60.662 102.725 61.3452 106.293 62.0952C107.706 62.392 110.138 63.05 110.999 64.3821C111.317 64.8744 107.374 65.8009 107.032 65.9067C105.678 66.3258 103.914 66.9492 106.449 66.99C110.349 67.0529 114.255 66.8839 118.154 67.0302C122.27 67.1846 120.02 68.5933 119.593 67.7122" stroke="#FE019A" stroke-width="8" stroke-linecap="round"/>
<path d="M17.7848 199.586C17.9232 213.421 19.9321 226.651 19.9321 240.384" stroke="#FE019A" stroke-width="8" stroke-linecap="round"/>
<path d="M45.6994 208.175C41.7773 211.444 36.2198 214.54 31.7421 217.003C30.1647 217.871 22.7242 223.027 27.209 223.206C35.5838 223.541 43.7886 230.125 52.1412 231.795" stroke="#FE019A" stroke-width="8" stroke-linecap="round"/>
<path d="M62.8776 203.881C67.268 207.295 66.7098 218.945 69.0808 224.28C70.0174 226.387 70.393 230.543 70.393 232.869" stroke="#FE019A" stroke-width="8" stroke-linecap="round"/>
<path d="M95.0867 201.734C94.48 212.653 90.7921 222.921 90.7921 233.943" stroke="#FE019A" stroke-width="8" stroke-linecap="round"/>
<path d="M100.455 201.733C100.455 208.454 104.06 212.609 107.135 217.838C108.444 220.063 112.17 220.814 113.577 223.206C114.521 224.81 117.469 227.991 119.303 228.515C122.486 229.424 120.268 213.858 119.84 211.933C118.665 206.645 120.854 201.405 120.854 196.365" stroke="#FE019A" stroke-width="8" stroke-linecap="round"/>
<path d="M134.811 197.439C134.811 208.651 135.885 219.741 135.885 230.722" stroke="#FE019A" stroke-width="8" stroke-linecap="round"/>
<path d="M135.885 196.365C142.479 195.706 151.372 195.21 155.449 201.733C158.165 206.079 167.849 211.046 162.487 217.599C159.554 221.185 144.498 233.966 140.179 229.648" stroke="#FE019A" stroke-width="8" stroke-linecap="round"/>
</svg>
