<svg width="47" height="60" viewBox="0 0 47 60" fill="none" xmlns="http://www.w3.org/2000/svg">
<g clip-path="url(#clip0_1_23)">
<path d="M13.9221 58.6634C13.9221 55.2298 13.9221 51.7962 13.9221 48.3625C13.9221 42.2187 14.3412 35.9282 13.8224 29.806C13.3544 24.2839 8.47519 20.8646 7.86133 15.3398" stroke="#FE019A" stroke-width="2" stroke-linecap="round"/>
<path d="M18.8594 57.5405C18.8594 49.0101 19.0842 40.7323 21.578 32.4742C23.0456 27.6144 24.767 22.0134 27.988 17.9582C29.3953 16.1864 31.4537 15.3565 33.4502 14.4414" stroke="#FE019A" stroke-width="2" stroke-linecap="round"/>
<path d="M26.9434 57.9882C26.9434 49.7984 27.9457 42.0457 30.4352 34.169C33.5904 24.186 38.5278 14.4018 44.6768 5.91016" stroke="#FE019A" stroke-width="2" stroke-linecap="round"/>
<path d="M21.3312 58.4369C21.3312 46.8475 21.1919 35.3013 20.7575 23.7181C20.5535 18.278 20.3687 13.4517 18.5377 8.29174C17.8122 6.24727 17.1428 4.19621 16.6172 2.09375" stroke="#FE019A" stroke-width="2" stroke-linecap="round"/>
<path d="M11.2297 56.8621C11.2297 51.5488 11.2751 46.4478 9.78304 41.2736C8.2273 35.8787 5.45537 30.866 3.37305 25.6602" stroke="#FE019A" stroke-width="2" stroke-linecap="round"/>
<path d="M16.141 1.80469C15.3116 1.88009 14.2125 3.35783 15.1561 3.89344C15.7418 4.22582 16.6195 4.72844 17.3044 4.77917C17.4951 4.7933 17.223 4.90017 17.1325 4.99069C16.6598 5.46342 16.2892 6.06645 16.0088 6.66962C15.8907 6.92375 15.3707 8.12768 15.837 8.28906C16.3656 8.47205 17.0603 8.50783 17.6084 8.41465C17.9155 8.36245 18.766 8.01805 18.4545 8.01805C18.0376 8.01805 15.9863 9.11458 16.5641 9.59122C17.7195 10.5445 19.4166 11.1564 20.768 11.7791C21.2798 12.0149 21.7805 12.1654 22.3279 12.2749" stroke="#FE019A" stroke-width="2" stroke-linecap="round"/>
<path d="M32.3232 13.9424C31.6598 13.9424 30.9294 13.7204 30.8954 14.6034C30.8334 16.2171 34.0517 15.1578 34.7821 14.61C35.4541 14.106 34.7622 14.0724 34.2268 13.9688C33.1946 13.769 31.7797 13.6109 30.8029 14.0812C29.8464 14.5417 29.6948 15.5046 29.4941 16.4542C29.3497 17.1375 29.1809 18.0522 30.1815 17.9612C30.6253 17.9209 31.5856 17.6792 31.7151 17.1614C31.8241 16.7252 30.2093 16.9276 30.0229 16.9433C28.7372 17.0517 27.1504 17.559 26.5262 18.8073C26.181 19.4978 26.427 20.2482 27.1145 20.592C28.0591 21.0643 29.0709 20.7856 29.7717 20.0368C30.2051 19.5738 30.4852 18.9457 29.6461 18.7809C28.2755 18.5116 26.8843 19.1358 26.1891 20.3408C26.0374 20.6039 25.6073 21.3365 25.9644 21.6232C26.6104 22.1418 27.9996 22.0467 28.7538 22.152" stroke="#FE019A" stroke-width="2" stroke-linecap="round"/>
<path d="M45.052 5.61478C45.0218 5.37359 44.3442 5.4958 44.1927 5.4958C43.0327 5.4958 41.9376 5.67846 41.1521 6.6195C40.8226 7.01427 40.004 8.04073 40.187 8.63554C40.3507 9.16758 42.3343 9.15388 42.7054 9.17094C43.2611 9.19649 44.8255 9.33883 45.2106 8.76113C45.3454 8.55893 44.7261 8.69467 44.4835 8.70825C43.5068 8.76289 42.5904 9.06628 41.7866 9.63364C40.6435 10.4406 39.8207 11.859 39.7111 13.2559C39.6343 14.2356 40.2823 14.4118 41.1389 14.1549C41.5839 14.0213 42.8857 13.4819 42.8575 12.8461C42.8199 12.0002 40.2161 12.5087 39.8301 12.6412C38.5494 13.0806 37.0664 14.3898 36.9878 15.8338C36.9043 17.3678 37.9555 18.7272 39.4732 18.9801C40.7644 19.1953 41.8941 18.1261 42.2824 16.9773C42.9079 15.127 41.4112 14.7586 39.8433 15.2587C38.4518 15.7026 37.1031 17.2663 36.8027 18.7157C36.547 19.9498 39.5046 19.6543 40.1738 19.6543" stroke="#FE019A" stroke-width="2" stroke-linecap="round"/>
<path d="M8.64634 14.7695C8.01172 14.8571 7.09961 15.5797 7.09961 16.2766C7.09961 16.8994 7.27778 18.9826 8.27618 18.6165C9.08981 18.3182 9.72656 17.5706 10.2129 16.8847C10.259 16.8198 10.9229 15.7861 10.6425 15.9263C9.25938 16.6179 7.63715 18.6071 7.39045 20.1633C7.11643 21.8917 11.3497 21.842 12.2686 21.5447C12.5715 21.4468 13.2693 21.3801 13.1147 21.1019C12.8761 20.6725 11.4217 21.5632 11.2771 21.6968C10.1288 22.7579 9.45391 24.3509 9.16853 25.861C9.04779 26.5 8.63491 28.886 9.55852 29.2057C10.6642 29.5884 12.1607 28.1936 12.8371 27.5135C13.5407 26.806 14.076 25.9645 14.5953 25.1207" stroke="#FE019A" stroke-width="2" stroke-linecap="round"/>
<path d="M2.33845 25.5977C1.66234 25.74 1.31723 27.0052 1.27425 27.6071C1.21758 28.4005 4.15691 27.8997 4.59906 27.8318C5.3969 27.7094 6.07302 27.3769 6.67459 26.8403C6.86225 26.673 7.47581 26.1381 6.93899 26.0207C5.00189 25.597 3.05062 27.9093 2.60946 29.5636C2.03573 31.7151 3.64421 32.3648 5.55089 32.6571C6.49889 32.8024 7.55448 32.872 8.44606 32.4456C8.57722 32.3828 9.58011 31.7804 9.43094 31.507C9.29828 31.2638 8.54147 31.6137 8.43284 31.6722C7.12697 32.3754 6.43272 33.9731 6.09291 35.3407C5.67287 37.0313 5.67609 39.1059 6.64815 40.6155C7.46197 41.8793 8.49826 42.1066 9.83415 42.3737" stroke="#FE019A" stroke-width="2" stroke-linecap="round"/>
</g>
<defs>
<clipPath id="clip0_1_23">
<rect width="47" height="60" fill="white"/>
</clipPath>
</defs>
</svg>
