<svg width="45" height="43" viewBox="0 0 45 43" fill="none" xmlns="http://www.w3.org/2000/svg">
<g clip-path="url(#clip0_1_34)">
<path d="M2.52899 17.2177C2.52899 9.43746 9.97469 4.52271 16.522 2.14188C22.1574 0.0926317 29.372 0.727143 34.0428 4.73067C36.3109 6.67473 38.6998 9.19652 39.4488 12.1925C39.7854 13.5391 40.0085 14.4584 38.8904 15.5765C36.938 17.5289 34.335 18.2816 31.9193 19.3835C30.3892 20.0815 28.6209 20.2924 26.9786 20.6018C24.3481 21.0974 21.7224 21.1771 19.0515 21.1771C16.7136 21.1771 14.4622 20.6925 12.1396 20.5764C10.7222 20.5055 9.3704 20.2202 8.01958 19.815C6.99361 19.5072 5.97732 19.1383 4.95703 18.8082C3.94634 18.4813 2.25786 17.7415 1.76758 16.7609" stroke="#FE019A" stroke-width="2" stroke-linecap="round"/>
<path d="M16.7794 21.2969C16.7794 24.4802 16.6492 27.7102 16.9775 30.8775C17.1877 32.905 17.2748 34.9042 17.2748 36.9391C17.2748 38.1335 17.5827 39.1197 18.1446 40.1447C18.472 40.7421 19.2134 40.8838 19.796 41.0365C21.785 41.5577 23.8898 40.8689 25.8734 40.8196C30.1237 40.7138 29.0783 34.4799 28.6699 31.4559C28.3599 29.1607 28.0754 26.8461 28.0754 24.5266C28.0754 24.0354 27.6284 21.5415 27.8772 21.4053" stroke="#FE019A" stroke-width="2" stroke-linecap="round"/>
<path d="M8.85352 13.2682C9.3151 13.2682 9.48527 12.2773 8.85352 12.2773" stroke="#FE019A" stroke-width="2" stroke-linecap="round"/>
<path d="M13.5102 8.01888C13.5102 8.35225 13.5102 7.94145 13.5102 7.82621C13.5102 7.60511 13.403 7.5868 13.2129 7.52344" stroke="#FE019A" stroke-width="2" stroke-linecap="round"/>
<path d="M21.7344 6.03802C21.7344 6.74347 23.6633 5.83984 22.7253 5.83984" stroke="#FE019A" stroke-width="2" stroke-linecap="round"/>
<path d="M31.7426 9.90065C31.7426 10.1482 31.6235 11.8983 32.0839 11.7668C32.2742 11.7124 32.113 10.4302 32.0949 10.308C32.0388 9.93001 31.8458 9.34052 31.4453 9.20703" stroke="#FE019A" stroke-width="2" stroke-linecap="round"/>
<path d="M24.3104 13.0697C24.508 13.0697 24.739 13.1181 24.7068 12.8495C24.6753 12.587 24.1222 12.5742 23.9141 12.5742" stroke="#FE019A" stroke-width="2" stroke-linecap="round"/>
<path d="M16.1854 16.5396C16.5614 16.4927 15.7891 15.8742 15.7891 16.4406" stroke="#FE019A" stroke-width="2" stroke-linecap="round"/>
<path d="M17.5723 12.3768C17.5803 12.3124 18.2203 11.9805 17.5723 11.9805" stroke="#FE019A" stroke-width="2" stroke-linecap="round"/>
<path d="M33.8444 27.3507C33.716 27.4566 31.3848 29.4248 33.4245 30.9982C34.4696 31.8043 37.5585 31.9831 39.6506 31.8913C40.5379 31.8523 41.7944 31.6226 42.4443 30.7723C42.7388 30.387 42.9266 29.9056 43.0402 29.4252C43.1269 29.0586 42.9343 28.6493 42.7822 28.3697C42.5173 27.8829 42.216 27.3851 41.8135 27.0407C40.9055 26.2638 39.9049 25.9453 38.7533 25.7898C37.438 25.6121 36.2587 25.8145 35.0135 26.5147C34.6124 26.7403 34.2093 27.0498 33.8444 27.3507Z" stroke="#FE019A" stroke-width="2" stroke-linecap="round"/>
<path d="M36.9745 33.0547C36.9745 35.2043 36.9277 37.3671 36.9277 39.5097" stroke="#FE019A" stroke-width="2" stroke-linecap="round"/>
<path d="M39.7773 32.4453V39.0407" stroke="#FE019A" stroke-width="2" stroke-linecap="round"/>
<path d="M36.1593 29.0466C36.0737 29.0572 36.1121 29.3841 36.1121 29.2986C36.1121 29.167 36.1664 28.9553 36.0176 28.9062" stroke="#FE019A" stroke-width="2" stroke-linecap="round"/>
<path d="M39.1621 28.906C39.4864 28.906 39.6625 28.8987 39.2571 28.7656" stroke="#FE019A" stroke-width="2" stroke-linecap="round"/>
<path d="M15.9752 27.9964C15.8581 27.6744 15.1069 27.5122 14.8355 27.4319C14.0938 27.2123 13.3084 27.0681 12.5348 27.0404C11.36 26.9985 10.3299 27.2019 9.31275 27.8047C8.69921 28.1683 8.12559 28.4615 7.6831 29.0269C7.32518 29.4843 7.08201 30.1017 6.84431 30.6299C6.70153 30.9472 6.53141 31.3037 6.44755 31.6392C6.40668 31.8026 6.57932 31.8774 6.68454 31.9827C6.99819 32.2963 7.3201 32.62 7.72038 32.8214C8.7189 33.3239 9.79369 33.4362 10.8945 33.4845C11.9829 33.5322 13.0914 33.543 14.1804 33.4978C14.8623 33.4695 15.5786 33.4366 16.2548 33.338C16.427 33.3129 16.5915 33.2482 16.7421 33.1729" stroke="#FE019A" stroke-width="2" stroke-linecap="round"/>
<path d="M9.98361 34.5625C9.98361 36.0927 9.98361 37.623 9.98361 39.1532C9.98361 39.3575 9.95728 39.5841 9.98627 39.787C10.0041 39.9118 9.98192 40.3613 10.0795 40.4101" stroke="#FE019A" stroke-width="2" stroke-linecap="round"/>
<path d="M15.2539 34.0371C15.2539 31.9121 15.2539 38.2869 15.2539 40.4119" stroke="#FE019A" stroke-width="2" stroke-linecap="round"/>
<path d="M9.74446 30.4396C9.74446 30.5107 9.84502 30.647 9.84032 30.5248C9.83383 30.356 9.68303 30.3438 9.55273 30.3438" stroke="#FE019A" stroke-width="2" stroke-linecap="round"/>
<path d="M12.8585 29.8663C13.2674 29.8663 12.8703 29.603 12.8105 29.7226" stroke="#FE019A" stroke-width="2" stroke-linecap="round"/>
</g>
<defs>
<clipPath id="clip0_1_34">
<rect width="45" height="43" fill="white"/>
</clipPath>
</defs>
</svg>
