<svg width="452" height="202" viewBox="0 0 452 202" fill="none" xmlns="http://www.w3.org/2000/svg">
<g clip-path="url(#clip0_5_149)">
<path d="M303.546 40.1992C302.366 40.1992 301.186 40.1992 300.006 40.1992C295.482 40.1992 292.31 43.8075 289.27 46.798C287.259 48.7772 285.948 51.6442 286.035 54.4985C286.081 55.9848 287.145 57.2893 288.087 58.3547C289.936 60.4482 292.31 62.1797 294.92 63.1836C299.465 64.9319 304.634 65.4399 309.125 63.2774C311.422 62.1715 314.01 60.5958 315.619 58.5774C317.329 56.4311 317.681 54.1369 317.681 51.4746C317.681 47.7877 316.302 44.9401 312.911 43.2701C310.062 41.8668 306.93 41.0431 303.757 41.0431" stroke="#FE019A" stroke-width="2" stroke-linecap="round"/>
<path d="M294.051 43.1523C294.051 45.314 294.898 47.3217 295.223 49.4347C295.579 51.7477 295.428 54.1854 295.95 56.4671C296.1 57.1236 296.25 57.7616 296.325 58.4362C296.45 59.5663 295.97 61.4317 296.583 62.3509" stroke="#FE019A" stroke-width="2" stroke-linecap="round"/>
<path d="M299.326 41.6719C299.326 43.6425 299.672 45.5106 300.053 47.4385C300.825 51.3407 301.214 55.2792 301.413 59.253C301.523 61.4599 301.355 63.5414 301.858 65.7229" stroke="#FE019A" stroke-width="2" stroke-linecap="round"/>
<path d="M303.967 43.1523C304.477 45.0902 305.508 46.9668 306.182 48.8603C307.197 51.7123 307.889 54.4966 308.397 57.4751C308.698 59.237 308.882 60.9974 309.03 62.7729" stroke="#FE019A" stroke-width="2" stroke-linecap="round"/>
<path d="M299.326 52.8594C299.326 54.9613 299.326 57.0632 299.326 59.1651C299.326 62.6739 300.056 65.6578 301.53 68.8582C303.646 73.4541 307.308 79.675 312.711 80.661C314.491 80.9858 317.613 81.1774 318.478 79.0435C319.569 76.3531 319.102 72.2091 318.29 69.5028C316.536 63.6554 310.82 59.6494 306.288 56.024" stroke="#FE019A" stroke-width="2" stroke-linecap="round"/>
<path d="M294.685 41.6757C294.685 38.8296 294.354 35.8014 294.732 32.9789C295.227 29.29 297.682 24.1984 300.71 21.938C304.547 19.0733 309.118 23.1345 310.954 26.6497C311.983 28.6209 312.606 31.9319 312.055 34.151C311.447 36.6043 309.732 38.798 308.609 41.0428" stroke="#FE019A" stroke-width="2" stroke-linecap="round"/>
<path d="M289.832 51.3805C290.327 51.3805 290.859 50.6023 290.418 50.1616C290.11 49.8537 290.474 51.2429 290.887 51.3805" stroke="#FE019A" stroke-width="2" stroke-linecap="round"/>
<path d="M287.721 57.0745C288.507 57.0745 290.295 57.3926 290.979 56.9573C291.497 56.628 291.811 56.1083 292.151 55.5977" stroke="#FE019A" stroke-width="2" stroke-linecap="round"/>
</g>
<g clip-path="url(#clip1_5_149)">
<path d="M39.4538 50.1992C40.6337 50.1992 41.8136 50.1992 42.9935 50.1992C47.5175 50.1992 50.6902 53.8075 53.7297 56.798C55.7413 58.7772 57.0524 61.6442 56.9646 64.4985C56.9189 65.9848 55.8545 67.2893 54.9135 68.3547C53.0642 70.4482 50.6905 72.1797 48.0803 73.1836C43.5348 74.9319 38.3662 75.4399 33.8747 73.2774C31.5779 72.1715 28.9899 70.5958 27.3814 68.5774C25.6711 66.4311 25.3186 64.1369 25.3186 61.4746C25.3186 57.7877 26.6982 54.9401 30.0889 53.2701C32.938 51.8668 36.0698 51.0431 39.2428 51.0431" stroke="#FE019A" stroke-width="2" stroke-linecap="round"/>
<path d="M48.9492 53.1523C48.9492 55.314 48.1022 57.3217 47.7771 59.4347C47.4213 61.7477 47.572 64.1854 47.0505 66.4671C46.9004 67.1236 46.7503 67.7616 46.6754 68.4362C46.5498 69.5663 47.0304 71.4317 46.4175 72.3509" stroke="#FE019A" stroke-width="2" stroke-linecap="round"/>
<path d="M43.6738 51.6719C43.6738 53.6425 43.3285 55.5106 42.9471 57.4385C42.1753 61.3407 41.7862 65.2792 41.5875 69.253C41.4772 71.4599 41.6455 73.5414 41.1421 75.7229" stroke="#FE019A" stroke-width="2" stroke-linecap="round"/>
<path d="M39.0332 53.1523C38.5232 55.0902 37.4917 56.9668 36.818 58.8603C35.8034 61.7123 35.1113 64.4966 34.6028 67.4751C34.302 69.237 34.1178 70.9974 33.9698 72.7729" stroke="#FE019A" stroke-width="2" stroke-linecap="round"/>
<path d="M43.6738 62.8594C43.6738 64.9613 43.6738 67.0632 43.6738 69.1651C43.6738 72.6739 42.9442 75.6578 41.4703 78.8582C39.3538 83.4541 35.6919 89.675 30.2887 90.661C28.5091 90.9858 25.3872 91.1774 24.5221 89.0435C23.4314 86.3531 23.8978 82.2091 24.7097 79.5028C26.4639 73.6554 32.1799 69.6494 36.7117 66.024" stroke="#FE019A" stroke-width="2" stroke-linecap="round"/>
<path d="M48.3147 51.6757C48.3147 48.8296 48.6465 45.8014 48.2679 42.9789C47.773 39.29 45.3184 34.1984 42.2903 31.938C38.4527 29.0733 33.8815 33.1345 32.0463 36.6497C31.0173 38.6209 30.3944 41.9319 30.9446 44.151C31.5529 46.6043 33.2681 48.798 34.3905 51.0428" stroke="#FE019A" stroke-width="2" stroke-linecap="round"/>
<path d="M53.168 61.3805C52.6733 61.3805 52.1412 60.6023 52.5819 60.1616C52.8898 59.8537 52.5261 61.2429 52.1131 61.3805" stroke="#FE019A" stroke-width="2" stroke-linecap="round"/>
<path d="M55.2793 67.0745C54.493 67.0745 52.705 67.3926 52.0209 66.9573C51.5035 66.628 51.1893 66.1083 50.8488 65.5977" stroke="#FE019A" stroke-width="2" stroke-linecap="round"/>
</g>
<path d="M104.112 72.2267C97.3512 72.2267 89.8137 71.0622 83.5299 73.89C74.8712 77.7864 66.6898 86.4445 66.6898 96.5513C66.6898 103.1 64.0929 115.696 68.9767 120.876C73.016 125.16 79.0248 133.974 85.401 133.974C98.0597 133.974 101.686 124.757 109.518 116.926C114.265 112.179 107.339 112.548 104.112 112.456C99.0093 112.31 92.9906 111.244 88.2077 109.649" stroke="#FE019A" stroke-width="3.84714" stroke-linecap="round"/>
<path d="M127.501 94.6803C127.501 100.007 124.57 116.478 131.295 119.421C138.343 122.504 149.019 121.51 149.019 112.248C149.019 107.382 151.643 92.8091 142.886 92.8091C137.415 92.8091 132.986 92.4058 128.437 94.6803" stroke="#FE019A" stroke-width="3.84714" stroke-linecap="round"/>
<path d="M162.117 95.6158C162.117 100.447 156.926 109.78 162.585 112.924C165.885 114.757 167.541 115.263 171.473 115.263C176.698 115.263 175.683 112.423 178.23 108.922C179.848 106.697 181.524 87.1957 178.489 87.1957C171.68 87.1957 169.4 91.039 163.988 93.7447" stroke="#FE019A" stroke-width="3.84714" stroke-linecap="round"/>
<path d="M192.055 92.8091C192.055 102.233 192.991 111.491 192.991 120.876" stroke="#FE019A" stroke-width="3.84714" stroke-linecap="round"/>
<path d="M193.926 92.8091C200.311 92.8091 213.35 90.4092 218.978 93.7447C226.469 98.1834 225.735 102.646 225.735 111.053C225.735 116.853 216.319 118.069 212.17 118.069C209.487 118.069 207.273 119.94 204.685 119.94C202.034 119.94 199.384 119.94 196.733 119.94" stroke="#FE019A" stroke-width="3.84714" stroke-linecap="round"/>
<path d="M263.158 68.4845C263.158 86.1042 263.158 103.724 263.158 121.344C263.158 122.67 267.353 119.86 269.291 119.473C275.164 118.298 281.502 119.005 287.482 119.005C292.268 119.005 296.958 119.94 301.516 119.94" stroke="#FE019A" stroke-width="3.84714" stroke-linecap="round"/>
<path d="M312.743 94.6802C312.743 101.182 312.696 107.043 314.822 113.184C316.124 116.946 325.192 115.263 328.647 115.263C334.255 115.263 338.003 108.29 338.003 103.308C338.003 100.276 338.003 97.2443 338.003 94.2124C338.003 92.4939 335.944 90.5621 335.196 89.0668" stroke="#FE019A" stroke-width="3.84714" stroke-linecap="round"/>
<path d="M365.134 96.5514C356.062 96.5514 344.862 106.839 349.229 116.666C351.636 122.08 357.109 123.683 362.535 123.683C366.149 123.683 375.936 124.956 377.296 120.876" stroke="#FE019A" stroke-width="3.84714" stroke-linecap="round"/>
<path d="M381.974 75.969C381.974 83.3835 381.937 90.8792 384.313 98.0067C385.48 101.508 387.587 106.842 387.587 110.585C387.587 115.938 391.33 121.085 391.33 126.489" stroke="#FE019A" stroke-width="3.84714" stroke-linecap="round"/>
<path d="M401.621 82.5179C401.621 87.7151 395.646 90.7367 395.072 95.6158C394.767 98.2115 390.051 100.987 388.731 103.1C386.997 105.875 389.743 104.971 392.369 104.971C396.948 104.971 403.013 103.823 407.234 105.699C410.153 106.996 412.784 108.214 415.654 109.649" stroke="#FE019A" stroke-width="3.84714" stroke-linecap="round"/>
<path d="M419.397 61C419.397 65.9204 419.397 70.8407 419.397 75.7611C419.397 81.9136 420.593 85.3279 421.995 90.938C423.043 95.1268 423.161 100.338 425.01 104.036" stroke="#FE019A" stroke-width="3.84714" stroke-linecap="round"/>
<path d="M425.01 111.52C426.569 111.52 428.128 111.52 429.688 111.52C430.122 111.52 428.503 112.19 427.609 113.184C424.993 116.09 425.894 117.134 429.688 117.134" stroke="#FE019A" stroke-width="3.84714" stroke-linecap="round"/>
<path d="M160.966 142.829C160.176 156.785 157.952 169.25 155.305 182.781C154.737 185.682 154.107 188.861 154.107 191.816" stroke="#FE019A" stroke-width="3.84714" stroke-linecap="round"/>
<path d="M164.885 143.808C164.885 156.889 176.702 161.238 181.595 171.84C184.405 177.929 188.653 183.997 192.1 189.857C193.511 192.256 192.895 180.465 192.318 178.59C191.121 174.7 191.338 170.921 191.338 166.887C191.338 159.847 191.338 152.808 191.338 145.768" stroke="#FE019A" stroke-width="3.84714" stroke-linecap="round"/>
<path d="M216.812 160.464C211.595 165.374 207.014 167.784 207.014 176.14C207.014 180.073 206.951 182.765 209.191 185.938C215.076 194.274 241.523 199.275 243.319 184.904C243.877 180.439 243.931 177.103 242.775 172.711C241.664 168.49 239.475 167.97 236.897 164.819C232.604 159.572 225.204 159.484 218.771 159.484" stroke="#FE019A" stroke-width="3.84714" stroke-linecap="round"/>
<path d="M246.204 152.626C246.892 160.885 253.579 167.281 254.042 175.161C254.199 177.829 256.822 181.104 256.981 183.978C257.127 186.597 258.056 192.678 260.138 190.075C264.718 184.35 265.392 175.054 269.936 169.5C272.227 166.699 277.556 157.309 277.556 153.606" stroke="#FE019A" stroke-width="3.84714" stroke-linecap="round"/>
<path d="M294.212 157.525C289.66 164.713 285.585 172.526 282.237 180.059C280.864 183.149 278.536 186.604 278.536 189.857" stroke="#FE019A" stroke-width="3.84714" stroke-linecap="round"/>
<path d="M298.131 156.545C305.057 167.137 307.935 180.078 311.848 191.816" stroke="#FE019A" stroke-width="3.84714" stroke-linecap="round"/>
<path d="M285.394 178.1C292.018 177.548 298.737 173.201 304.989 173.201" stroke="#FE019A" stroke-width="3.84714" stroke-linecap="round"/>
<g clip-path="url(#clip2_5_149)">
<path d="M84.529 173.218C84.529 165.437 91.9747 160.523 98.522 158.142C104.157 156.093 111.372 156.727 116.043 160.731C118.311 162.675 120.7 165.197 121.449 168.193C121.785 169.539 122.008 170.458 120.89 171.576C118.938 173.529 116.335 174.282 113.919 175.383C112.389 176.081 110.621 176.292 108.979 176.602C106.348 177.097 103.722 177.177 101.051 177.177C98.7136 177.177 96.4622 176.693 94.1396 176.576C92.7222 176.506 91.3704 176.22 90.0196 175.815C88.9936 175.507 87.9773 175.138 86.957 174.808C85.9463 174.481 84.2579 173.742 83.7676 172.761" stroke="#FE019A" stroke-width="2" stroke-linecap="round"/>
<path d="M98.7794 177.297C98.7794 180.48 98.6492 183.71 98.9775 186.877C99.1877 188.905 99.2748 190.904 99.2748 192.939C99.2748 194.133 99.5827 195.12 100.145 196.145C100.472 196.742 101.213 196.884 101.796 197.036C103.785 197.558 105.89 196.869 107.873 196.82C112.124 196.714 111.078 190.48 110.67 187.456C110.36 185.161 110.075 182.846 110.075 180.527C110.075 180.035 109.628 177.541 109.877 177.405" stroke="#FE019A" stroke-width="2" stroke-linecap="round"/>
<path d="M90.8535 169.268C91.3151 169.268 91.4853 168.277 90.8535 168.277" stroke="#FE019A" stroke-width="2" stroke-linecap="round"/>
<path d="M95.5102 164.019C95.5102 164.352 95.5102 163.941 95.5102 163.826C95.5102 163.605 95.403 163.587 95.2129 163.523" stroke="#FE019A" stroke-width="2" stroke-linecap="round"/>
<path d="M103.734 162.038C103.734 162.743 105.663 161.84 104.725 161.84" stroke="#FE019A" stroke-width="2" stroke-linecap="round"/>
<path d="M113.743 165.901C113.743 166.148 113.623 167.898 114.084 167.767C114.274 167.712 114.113 166.43 114.095 166.308C114.039 165.93 113.846 165.341 113.445 165.207" stroke="#FE019A" stroke-width="2" stroke-linecap="round"/>
<path d="M106.31 169.07C106.508 169.07 106.739 169.118 106.707 168.85C106.675 168.587 106.122 168.574 105.914 168.574" stroke="#FE019A" stroke-width="2" stroke-linecap="round"/>
<path d="M98.1854 172.54C98.5614 172.493 97.7891 171.874 97.7891 172.441" stroke="#FE019A" stroke-width="2" stroke-linecap="round"/>
<path d="M99.5723 168.377C99.5803 168.312 100.22 167.981 99.5723 167.981" stroke="#FE019A" stroke-width="2" stroke-linecap="round"/>
<path d="M115.844 183.351C115.716 183.457 113.385 185.425 115.425 186.998C116.47 187.804 119.559 187.983 121.651 187.891C122.538 187.852 123.794 187.623 124.444 186.772C124.739 186.387 124.927 185.906 125.04 185.425C125.127 185.059 124.934 184.649 124.782 184.37C124.517 183.883 124.216 183.385 123.814 183.041C122.906 182.264 121.905 181.945 120.753 181.79C119.438 181.612 118.259 181.815 117.014 182.515C116.612 182.74 116.209 183.05 115.844 183.351Z" stroke="#FE019A" stroke-width="2" stroke-linecap="round"/>
<path d="M118.975 189.055C118.975 191.204 118.928 193.367 118.928 195.51" stroke="#FE019A" stroke-width="2" stroke-linecap="round"/>
<path d="M121.777 188.445V195.041" stroke="#FE019A" stroke-width="2" stroke-linecap="round"/>
<path d="M118.159 185.047C118.074 185.057 118.112 185.384 118.112 185.299C118.112 185.167 118.166 184.955 118.018 184.906" stroke="#FE019A" stroke-width="2" stroke-linecap="round"/>
<path d="M121.162 184.906C121.486 184.906 121.663 184.899 121.257 184.766" stroke="#FE019A" stroke-width="2" stroke-linecap="round"/>
<path d="M97.9752 183.996C97.8581 183.674 97.1069 183.512 96.8355 183.432C96.0938 183.212 95.3084 183.068 94.5348 183.04C93.36 182.998 92.3299 183.202 91.3127 183.805C90.6992 184.168 90.1256 184.461 89.6831 185.027C89.3252 185.484 89.082 186.102 88.8443 186.63C88.7015 186.947 88.5314 187.304 88.4475 187.639C88.4067 187.803 88.5793 187.877 88.6845 187.983C88.9982 188.296 89.3201 188.62 89.7204 188.821C90.7189 189.324 91.7937 189.436 92.8945 189.484C93.9829 189.532 95.0914 189.543 96.1804 189.498C96.8623 189.469 97.5786 189.437 98.2548 189.338C98.427 189.313 98.5915 189.248 98.7421 189.173" stroke="#FE019A" stroke-width="2" stroke-linecap="round"/>
<path d="M91.9836 190.562C91.9836 192.093 91.9836 193.623 91.9836 195.153C91.9836 195.357 91.9573 195.584 91.9863 195.787C92.0041 195.912 91.9819 196.361 92.0795 196.41" stroke="#FE019A" stroke-width="2" stroke-linecap="round"/>
<path d="M97.2539 190.037C97.2539 187.912 97.2539 194.287 97.2539 196.412" stroke="#FE019A" stroke-width="2" stroke-linecap="round"/>
<path d="M91.7445 186.44C91.7445 186.511 91.845 186.647 91.8403 186.525C91.8338 186.356 91.683 186.344 91.5527 186.344" stroke="#FE019A" stroke-width="2" stroke-linecap="round"/>
<path d="M94.8585 185.866C95.2674 185.866 94.8703 185.603 94.8105 185.723" stroke="#FE019A" stroke-width="2" stroke-linecap="round"/>
</g>
<g clip-path="url(#clip3_5_149)">
<path d="M354.922 200.663C354.922 197.23 354.922 193.796 354.922 190.362C354.922 184.219 355.341 177.928 354.822 171.806C354.354 166.284 349.475 162.865 348.861 157.34" stroke="#FE019A" stroke-width="2" stroke-linecap="round"/>
<path d="M359.859 199.541C359.859 191.01 360.084 182.732 362.578 174.474C364.046 169.614 365.767 164.013 368.988 159.958C370.395 158.186 372.454 157.357 374.45 156.441" stroke="#FE019A" stroke-width="2" stroke-linecap="round"/>
<path d="M367.943 199.988C367.943 191.798 368.946 184.046 371.435 176.169C374.59 166.186 379.528 156.402 385.677 147.91" stroke="#FE019A" stroke-width="2" stroke-linecap="round"/>
<path d="M362.331 200.437C362.331 188.848 362.192 177.301 361.757 165.718C361.553 160.278 361.369 155.452 359.538 150.292C358.812 148.247 358.143 146.196 357.617 144.094" stroke="#FE019A" stroke-width="2" stroke-linecap="round"/>
<path d="M352.23 198.862C352.23 193.549 352.275 188.448 350.783 183.274C349.227 177.879 346.455 172.866 344.373 167.66" stroke="#FE019A" stroke-width="2" stroke-linecap="round"/>
<path d="M357.141 143.805C356.312 143.88 355.213 145.358 356.156 145.893C356.742 146.226 357.62 146.728 358.304 146.779C358.495 146.793 358.223 146.9 358.133 146.991C357.66 147.463 357.289 148.066 357.009 148.67C356.891 148.924 356.371 150.128 356.837 150.289C357.366 150.472 358.06 150.508 358.608 150.415C358.916 150.362 359.766 150.018 359.455 150.018C359.038 150.018 356.986 151.115 357.564 151.591C358.72 152.544 360.417 153.156 361.768 153.779C362.28 154.015 362.781 154.165 363.328 154.275" stroke="#FE019A" stroke-width="2" stroke-linecap="round"/>
<path d="M373.323 155.942C372.66 155.942 371.929 155.72 371.895 156.603C371.833 158.217 375.052 157.158 375.782 156.61C376.454 156.106 375.762 156.072 375.227 155.969C374.195 155.769 372.78 155.611 371.803 156.081C370.846 156.542 370.695 157.505 370.494 158.454C370.35 159.138 370.181 160.052 371.182 159.961C371.625 159.921 372.586 159.679 372.715 159.161C372.824 158.725 371.209 158.928 371.023 158.943C369.737 159.052 368.15 159.559 367.526 160.807C367.181 161.498 367.427 162.248 368.115 162.592C369.059 163.064 370.071 162.786 370.772 162.037C371.205 161.574 371.485 160.946 370.646 160.781C369.276 160.512 367.884 161.136 367.189 162.341C367.037 162.604 366.607 163.337 366.964 163.623C367.61 164.142 369 164.047 369.754 164.152" stroke="#FE019A" stroke-width="2" stroke-linecap="round"/>
<path d="M386.052 147.615C386.022 147.374 385.344 147.496 385.193 147.496C384.033 147.496 382.938 147.678 382.152 148.62C381.823 149.014 381.004 150.041 381.187 150.636C381.351 151.168 383.334 151.154 383.705 151.171C384.261 151.196 385.826 151.339 386.211 150.761C386.345 150.559 385.726 150.695 385.484 150.708C384.507 150.763 383.59 151.066 382.787 151.634C381.644 152.441 380.821 153.859 380.711 155.256C380.634 156.236 381.282 156.412 382.139 156.155C382.584 156.021 383.886 155.482 383.858 154.846C383.82 154 381.216 154.509 380.83 154.641C379.549 155.081 378.066 156.39 377.988 157.834C377.904 159.368 378.956 160.727 380.473 160.98C381.764 161.195 382.894 160.126 383.282 158.977C383.908 157.127 382.411 156.759 380.843 157.259C379.452 157.703 378.103 159.266 377.803 160.716C377.547 161.95 380.505 161.654 381.174 161.654" stroke="#FE019A" stroke-width="2" stroke-linecap="round"/>
<path d="M349.646 156.769C349.012 156.857 348.1 157.58 348.1 158.277C348.1 158.899 348.278 160.983 349.276 160.616C350.09 160.318 350.727 159.571 351.213 158.885C351.259 158.82 351.923 157.786 351.642 157.926C350.259 158.618 348.637 160.607 348.39 162.163C348.116 163.892 352.35 163.842 353.269 163.545C353.571 163.447 354.269 163.38 354.115 163.102C353.876 162.672 352.422 163.563 352.277 163.697C351.129 164.758 350.454 166.351 350.169 167.861C350.048 168.5 349.635 170.886 350.559 171.206C351.664 171.588 353.161 170.194 353.837 169.513C354.541 168.806 355.076 167.964 355.595 167.121" stroke="#FE019A" stroke-width="2" stroke-linecap="round"/>
<path d="M343.338 167.598C342.662 167.74 342.317 169.005 342.274 169.607C342.218 170.401 345.157 169.9 345.599 169.832C346.397 169.709 347.073 169.377 347.675 168.84C347.862 168.673 348.476 168.138 347.939 168.021C346.002 167.597 344.051 169.909 343.609 171.564C343.036 173.715 344.644 174.365 346.551 174.657C347.499 174.802 348.554 174.872 349.446 174.446C349.577 174.383 350.58 173.78 350.431 173.507C350.298 173.264 349.541 173.614 349.433 173.672C348.127 174.375 347.433 175.973 347.093 177.341C346.673 179.031 346.676 181.106 347.648 182.616C348.462 183.879 349.498 184.107 350.834 184.374" stroke="#FE019A" stroke-width="2" stroke-linecap="round"/>
</g>
<g clip-path="url(#clip4_5_149)">
<path d="M196.197 72.294C196.197 69.013 196.295 65.7151 196.197 62.4354C196.091 58.9145 194.131 55.0657 192.74 51.9207C191.2 48.44 189.228 44.5521 186.962 41.4859C185.85 39.9816 184.236 38.914 183.137 37.5009C181.552 35.4627 187.539 40.233 189.523 41.886C195.583 46.9363 200.71 53.1571 201.606 61.2191C201.734 62.3674 201.958 63.5198 201.958 64.676C201.958 66.2394 201.974 64.877 201.958 64.0358C201.851 58.3985 201.236 52.5496 200.518 46.9594C199.971 42.7017 198.271 39.1372 196.645 35.2123C196.137 33.9867 194.17 30.5191 194.82 31.6754C195.151 32.2636 196.277 32.7335 196.757 33.1317C199.22 35.1771 201.143 37.7358 202.662 40.5417C206.048 46.7965 207.917 53.3253 208.728 60.3549C209.011 62.8051 209.465 65.2418 209.896 67.6688C210.188 69.3159 211.026 72.9293 210.824 69.0291C210.44 61.5761 210.111 53.805 211.673 46.4632C212.657 41.8321 214.73 35.656 218.89 32.7956C219.034 32.6973 222.026 31.4182 221.995 31.3873C221.48 30.872 220.265 33.2508 220.203 33.3558C217.195 38.4377 215.123 44.1031 213.833 49.8561C212.625 55.2441 212.617 60.5818 212.617 66.0684C212.617 66.848 211.992 72.1148 213.017 69.3812C215.913 61.6592 218.505 53.8234 221.515 46.1431C223.926 39.9925 226.291 33.0084 231.454 28.5545C232.489 27.6616 233.688 26.6931 235.023 26.2659C235.424 26.1376 234.753 27.0699 234.543 27.4342C232.973 30.145 231.55 32.9521 230.189 35.7724C227.622 41.0947 225.622 46.4285 224.3 52.1927C223.379 56.2061 221.8 60.1469 221.147 64.2119C220.78 66.4977 220.683 73.4568 220.683 71.1417" stroke="#FE019A" stroke-width="2" stroke-linecap="round"/>
</g>
<g clip-path="url(#clip5_5_149)">
<path d="M139.117 31.7617V72.8254" stroke="#FE019A" stroke-width="2" stroke-linecap="round"/>
<path d="M137.771 30.2777C136.548 32.602 133.858 33.6506 131.471 34.372C129.731 34.8977 124.024 36.8152 123.674 33.3177C123.314 29.7137 124.158 27.3339 127.156 25.2027C128.107 24.5263 129.308 23.7594 130.392 23.4498C130.8 23.3333 131.924 22.7208 131.544 22.9104C129.914 23.7254 127.936 23.916 126.175 24.2711C124.808 24.5467 121.624 25.1605 120.708 23.6582C119.271 21.3021 119.958 17.0333 121.713 15.0529C123.126 13.459 124.243 13.6303 126.151 14.2193C127.442 14.6181 128.701 15.0296 129.926 15.6045C130.525 15.8858 132.218 16.9278 131.667 16.5606C130.372 15.6974 128.523 13.6487 128.112 12.1354C127.362 9.37519 129.53 5.69936 132.218 4.82943C134.622 4.05177 136.652 8.7972 137.109 10.6276C137.277 11.2978 137.419 11.8253 137.771 10.8605C138.134 9.86762 138.587 8.91546 139.169 8.02885C140.553 5.92009 142.673 2.75946 145.126 1.76485C146.835 1.0723 149.636 2.26591 150.63 3.70166C151.806 5.40028 150.803 7.09589 149.539 8.35982C147.881 10.0185 146.016 11.4416 144.366 13.0915C144.12 13.3381 141.958 15.1305 142.895 14.7832C143.387 14.6011 143.774 14.1725 144.244 13.9374C145.646 13.2363 147.194 13.0068 148.73 12.7973C150.745 12.5226 155.03 11.7001 155.595 14.8077C155.79 15.8785 154.085 16.4284 153.413 16.7445C151.627 17.5848 149.956 18.6449 148.191 19.5271C147.201 20.0223 145.916 20.7898 144.759 20.7898C144.396 20.7898 145.478 20.9036 145.825 21.0104C147.882 21.6433 149.756 23.0738 151.158 24.6634C152.505 26.1912 153.658 27.7378 153.658 29.8119C153.658 31.2884 152.17 30.9676 151.035 31.3074C149.06 31.8984 147.307 32.7683 145.384 31.6996C144.267 31.0794 143.114 30.2746 142.184 29.3951C142.005 29.2253 140.694 28.0481 140.652 28.1938" stroke="#FE019A" stroke-width="2" stroke-linecap="round"/>
<path d="M137.548 17.9861C137.083 17.9861 136.61 17.9611 136.146 17.9921C135.536 18.0327 135.614 18.6203 135.478 19.0872C135.195 20.0579 134.99 20.8831 135.141 21.9031C135.443 23.9332 136.323 24.9585 138.348 25.3268C139.427 25.523 140.388 25.5332 140.857 24.4122C141.192 23.6124 141.461 22.5994 141.29 21.7286C141.057 20.5328 140.149 18.8525 138.739 18.8525" stroke="#FE019A" stroke-width="2" stroke-linecap="round"/>
<path d="M139.447 52.6493C139.447 50.657 139.57 49.294 140.538 47.4539C141.942 44.7821 143.675 42.4713 145.458 40.0684C147.249 37.655 150.762 37.1819 153.522 37.1454C154.632 37.1307 156.435 37.2919 156.435 38.7947C156.435 40.3939 154.737 42.0577 153.778 43.1655C151.624 45.6541 148.67 46.9864 145.77 48.4618C144.359 49.1796 143.062 50.0826 141.683 50.8534C141.453 50.9819 141.251 50.9756 141.06 51.1283C140.774 51.3568 140.335 51.5782 140.015 51.8155C139.902 51.8999 139.117 52.4996 139.117 52.3195" stroke="#FE019A" stroke-width="2" stroke-linecap="round"/>
<path d="M139.116 56.9579C139.055 56.5292 138.829 56.1073 138.639 55.7268C137.665 53.7787 136.173 52.171 134.652 50.6358C133.404 49.3762 132.085 48.246 130.615 47.2584C130.12 46.9266 129.629 46.6958 129.034 46.6317C128.576 46.5824 126.504 46.2209 126.261 46.8536C126.122 47.2149 126.493 47.6764 126.616 47.996C126.795 48.4607 126.823 48.9788 126.943 49.4601C127.174 50.3832 127.71 51.1952 128.208 51.9945C129.472 54.0263 130.984 56.2841 133.121 57.4903C134.632 58.3433 136.477 57.8563 138.118 57.8563" stroke="#FE019A" stroke-width="2" stroke-linecap="round"/>
</g>
<path d="M1.99711 121.594C3.72921 121.227 5.24145 120.309 6.90389 119.831C9.04188 119.216 11.2072 118.738 13.4002 118.273C14.8132 117.973 16.4591 117.66 17.8812 117.674C18.4529 117.679 19.7502 117.497 20.2522 117.824C20.9625 118.285 21.1291 119.363 21.5714 119.973C23.0941 122.074 23.3302 125.048 23.8543 127.52C24.2893 129.571 24.5755 131.773 25.0218 133.878C25.3952 135.639 26.4579 138.402 25.5433 140.172C25.0075 141.209 24.5204 142.217 23.8851 143.194C22.8461 144.792 21.5586 145.902 20.2299 147.262C18.746 148.78 17.9609 150.804 16.6137 152.365C16.0934 152.968 15.7458 153.823 15.3402 154.503C14.3632 156.14 13.3329 157.857 12.4998 159.572C11.9083 160.79 10.6295 161.907 9.77288 162.951C9.43068 163.368 8.72792 161.858 8.64635 161.474C8.46684 160.627 8.25922 159.764 8.09837 158.889C7.99595 158.333 8.03704 157.605 8.15995 157.049C8.30937 156.374 8.03464 155.553 8.00961 154.873C7.93276 152.782 7.30304 150.531 6.66921 148.551C6.12368 146.848 6.04365 145.074 5.70368 143.335C5.31816 141.363 4.86966 139.402 4.45291 137.437C3.89205 134.792 2.82287 132.306 2.26574 129.679C2.09772 128.886 1.63048 128.243 1.43301 127.456C1.25251 126.737 1.25651 126.388 1.22908 125.642C1.20838 125.079 1.32788 123.913 1.57687 123.4C1.70875 123.128 1.83475 122.889 1.99761 122.638C2.2608 122.233 2.9199 122.468 3.18137 122.066" stroke="#FE019A" stroke-width="2" stroke-linecap="round"/>
<path d="M26.7198 116.338C29.0614 115.567 31.4606 114.625 33.8881 114.11C35.1761 113.837 36.3396 113.414 37.6178 113.143C38.8115 112.89 39.9457 112.296 41.14 112.042C41.5716 111.951 42.1258 111.701 42.4605 112.116C43.409 113.293 41.2754 115.103 40.5859 116.147C39.5233 117.757 38.4056 119.425 37.3246 121.062C36.2496 122.69 35.2691 124.407 33.9381 125.856C33.0328 126.841 32.4638 128.133 31.585 129.134C31.0318 129.765 30.7138 130.504 30.2659 131.182C30.0778 131.467 29.55 133.003 29.0917 132.973C27.9707 132.899 28.4456 129.905 28.3971 129.368C28.1468 126.6 27.7983 123.961 27.2174 121.221C26.9756 120.081 26.0075 117.019 27.6854 116.663" stroke="#FE019A" stroke-width="2" stroke-linecap="round"/>
<path d="M46.3963 116.387C47.0529 119.484 48.3814 122.336 49.0392 125.438C49.3443 126.877 49.5749 128.246 49.77 129.69C50.0419 131.703 50.1326 133.787 50.5109 135.791C51.3722 140.356 50.834 144.994 51.7973 149.537C52.1413 151.159 52.8307 152.704 53.1793 154.348C53.36 155.2 52.423 154.816 51.8721 154.535C51.1239 154.154 50.3855 153.769 49.6329 153.408C48.7517 152.986 48.0349 152.404 47.2219 151.85C46.3928 151.285 45.2222 150.579 44.6456 149.75C44.1811 149.082 43.078 148.867 42.5266 148.289C41.7775 147.504 40.6793 146.904 39.7548 146.31C38.028 145.2 36.6275 143.601 35.073 142.338C34.1848 141.617 32.7605 141.697 32.0601 140.738C31.7722 140.344 31.68 139.989 31.5739 139.488C31.4739 139.017 31.7782 137.51 32.0739 137.154C32.3815 136.783 32.6689 135.928 32.8094 135.456C33.1601 134.277 34.1219 133.383 34.4732 132.257C34.7605 131.337 35.5029 130.642 36.0465 129.864C36.5905 129.086 37.0009 128.207 37.5888 127.468C38.6268 126.163 39.4891 124.695 40.5631 123.434C41.7199 122.077 42.6021 120.538 43.9536 119.373C44.641 118.78 45.3187 117.511 46.2317 117.317" stroke="#FE019A" stroke-width="2" stroke-linecap="round"/>
<path d="M28.7648 117.09C31.5314 116.418 34.2282 115.931 36.9436 115.356C37.6435 115.207 37.9344 114.938 38.5351 114.659C38.8368 114.519 39.2365 114.5 39.5601 114.432C40.3131 114.272 39.955 114.343 39.4145 114.729C37.7369 115.928 36.0831 116.738 34.0947 117.293C32.4732 117.745 30.3462 117.97 29.0338 119.155C28.908 119.269 28.0893 119.795 28.5494 119.73C30.6805 119.429 32.8292 119.25 34.981 119.176C35.6929 119.151 36.3721 118.984 37.0656 118.836C38.8587 118.456 33.5981 120.032 31.8539 120.598C31.2749 120.786 30.7626 121.096 30.1772 121.22C29.1186 121.444 29.2477 121.693 30.3733 121.63C31.1629 121.585 31.9503 121.457 32.7215 121.408C33.1854 121.379 33.5679 121.534 33.9968 121.517C34.5339 121.497 32.9357 121.927 32.8359 121.948C31.2287 122.289 29.6066 122.313 28.0059 122.603C25.9713 122.972 32.1696 122.633 34.2084 123.031C34.9503 123.176 34.9535 123.233 34.0474 123.537C32.7109 123.984 31.4972 124.447 30.1089 124.741C29.8317 124.8 28.7189 125.11 29.6976 125.238C30.7739 125.38 31.8811 125.298 32.9564 125.234C33.0174 125.231 34.9338 124.9 34.1743 125.448C33.7394 125.762 30.7915 126.871 30.8882 127.057C31.1412 127.544 32.8301 126.755 33.0783 127.075C33.1413 127.156 31.9466 127.629 31.916 127.639C30.473 128.096 29.0486 128.549 27.6346 129.101C26.1197 129.691 27.1182 129.654 28.0299 129.653C28.3907 129.652 29.0196 129.687 29.2992 129.968C29.4025 130.072 28.4863 130.503 28.4082 130.546C28.0988 130.719 27.6996 130.963 28.3217 130.842C29.2788 130.655 30.2253 130.411 31.1864 130.244C32.201 130.069 31.7238 130.53 31.5737 130.337" stroke="#FE019A" stroke-width="2" stroke-linecap="round"/>
<path d="M13.5141 167.868C14.2654 171.244 15.4428 174.375 16.155 177.734" stroke="#FE019A" stroke-width="2" stroke-linecap="round"/>
<path d="M20.7864 168.521C19.9967 169.523 18.7981 170.569 17.8308 171.403C17.49 171.697 15.9377 173.344 17.0438 173.155C19.1094 172.803 21.4573 173.988 23.5867 173.963" stroke="#FE019A" stroke-width="2" stroke-linecap="round"/>
<path d="M24.7648 166.579C26.0156 167.187 26.4833 170.065 27.3398 171.247C27.6781 171.713 27.9855 172.71 28.1061 173.279" stroke="#FE019A" stroke-width="2" stroke-linecap="round"/>
<path d="M32.5306 164.384C32.9485 167.086 32.579 169.788 33.1506 172.484" stroke="#FE019A" stroke-width="2" stroke-linecap="round"/>
<path d="M33.8434 164.106C34.192 165.749 35.289 166.578 36.3124 167.698C36.7479 168.174 37.6979 168.164 38.1662 168.676C38.4801 169.02 39.366 169.645 39.8418 169.678C40.6674 169.735 39.3176 166.043 39.1132 165.595C38.5516 164.362 38.8153 162.967 38.5539 161.735" stroke="#FE019A" stroke-width="2" stroke-linecap="round"/>
<path d="M42.023 161.274C42.6044 164.016 43.4421 166.672 44.0116 169.358" stroke="#FE019A" stroke-width="2" stroke-linecap="round"/>
<path d="M42.2299 160.955C43.8083 160.452 45.9575 159.87 47.2929 161.254C48.1825 162.176 50.8084 162.888 49.837 164.769C49.3055 165.798 46.2863 169.705 45.0062 168.872" stroke="#FE019A" stroke-width="2" stroke-linecap="round"/>
<path d="M341.041 6.82011C338.596 15.2343 335.902 23.5107 331.915 31.2752C330.332 34.3578 330.601 34.7347 334.331 34.7347C339.774 34.7347 345.095 36.1224 350.525 36.3749C353.171 36.498 355.995 36.6666 358.607 37.1503C364.286 38.2021 370.592 39.9108 376.352 40.1028C381.855 40.2863 388.434 42.597 393.56 44.3377C398.07 45.8695 402.367 46.8656 407.129 47.7376C414.879 49.1566 422.314 52.0394 430.093 53.2549C432.776 53.6742 435.836 54.5969 438.473 54.5969C440.538 54.5969 443.573 56.3285 443.573 52.9865C443.573 49.2947 445.592 45.0832 446.675 41.594C448.379 36.1019 450.015 30.5804 450.015 24.8035C450.015 22.6109 451.16 22.9021 448.375 22.0896C445.179 21.1574 441.952 20.3202 438.861 19.0476C429.881 15.35 420.646 14.2241 411.185 12.1883C406.991 11.2858 402.867 9.3021 398.6 8.96739C395.244 8.7042 391.702 8.54094 388.341 8.10251C382.785 7.37793 377.158 6.78554 371.64 5.86577C369.121 5.44608 366.397 4.67284 363.856 4.67284C359.989 4.67284 356.142 3.26384 352.314 3.06239C349.647 2.92202 346.933 3.06239 344.262 3.06239" stroke="#FE019A" stroke-width="2" stroke-linecap="round"/>
<path d="M345.335 13.2619C345.197 17.9694 344.262 22.4357 344.262 27.2192" stroke="#FE019A" stroke-width="2" stroke-linecap="round"/>
<path d="M346.946 13.2619C349.438 12.855 352.851 13.2275 352.851 16.4828C352.851 17.769 353.678 20.0404 353.119 21.0458C351.468 24.0186 348.144 25.6087 344.799 25.6087" stroke="#FE019A" stroke-width="2" stroke-linecap="round"/>
<path d="M360.903 16.4828C360.257 18.9391 357.914 24.0879 358.219 26.6824C358.339 27.7028 361.399 27.0176 362.245 27.4876C362.817 27.8052 364.661 28.0046 364.661 27.756" stroke="#FE019A" stroke-width="2" stroke-linecap="round"/>
<path d="M357.682 21.851C360.852 21.3099 363.675 22.3879 366.808 22.3879" stroke="#FE019A" stroke-width="2" stroke-linecap="round"/>
<path d="M362.514 16.4828C365.467 17.2839 368.092 17.5565 371.103 17.5565" stroke="#FE019A" stroke-width="2" stroke-linecap="round"/>
<path d="M377.545 19.1669C376.573 22.0453 375.153 25.256 374.353 28.0543C374.226 28.4986 373.787 30.461 373.787 29.9033" stroke="#FE019A" stroke-width="2" stroke-linecap="round"/>
<path d="M378.081 20.2406C379.84 20.2744 384.523 19.6495 384.523 22.3879C384.523 23.8101 384.572 25.6088 382.644 25.6088C380.229 25.6088 378.147 24.5351 375.934 24.5351" stroke="#FE019A" stroke-width="2" stroke-linecap="round"/>
<path d="M394.723 23.9983C389.732 24.1144 389.812 25.1167 388.162 28.8297C387.266 30.8439 390.62 32.5277 392.337 32.5277C394.043 32.5277 395.105 30.8143 395.796 29.6051C396.463 28.4377 396.435 25.1227 395.26 24.5351" stroke="#FE019A" stroke-width="2" stroke-linecap="round"/>
<path d="M404.385 23.4615C403.919 26.4322 402.783 28.9194 402.268 31.7523C402.042 32.9966 401.165 34.0784 401.165 35.2715" stroke="#FE019A" stroke-width="2" stroke-linecap="round"/>
<path d="M410.29 26.1456C408.836 26.9183 406.984 27.8242 405.727 28.8297C404.984 29.4248 403.234 29.3831 404.922 30.3208C406.836 31.3839 408.441 33.2732 410.29 34.1978" stroke="#FE019A" stroke-width="2" stroke-linecap="round"/>
<path d="M414.585 28.2928C416.757 28.4738 417.506 29.8097 419.297 30.6787C420.701 31.3601 422.361 32.0506 423.949 32.0506C424.094 32.0506 425.028 32.0598 424.665 32.4681C423.331 33.9696 420.67 33.8477 419.118 34.7347C418.603 35.0291 414.959 37.4008 414.973 37.4188C415.989 38.7743 422.769 39.566 424.785 39.566" stroke="#FE019A" stroke-width="2" stroke-linecap="round"/>
<path d="M432.3 28.8297C432.562 31.7413 433.669 36.2906 432.3 39.0292" stroke="#FE019A" stroke-width="2" stroke-linecap="round"/>
<path d="M433.91 42.7869C432.653 45.4587 434.547 43.2113 433.314 43.6518C432.15 44.0676 430.916 45.471 432.837 45.471" stroke="#FE019A" stroke-width="2" stroke-linecap="round"/>
<defs>
<clipPath id="clip0_5_149">
<rect width="36" height="63" fill="white" transform="translate(285 19)"/>
</clipPath>
<clipPath id="clip1_5_149">
<rect width="36" height="63" fill="white" transform="matrix(-1 0 0 1 58 29)"/>
</clipPath>
<clipPath id="clip2_5_149">
<rect width="45" height="43" fill="white" transform="translate(82 156)"/>
</clipPath>
<clipPath id="clip3_5_149">
<rect width="47" height="60" fill="white" transform="translate(341 142)"/>
</clipPath>
<clipPath id="clip4_5_149">
<rect width="56" height="49" fill="white" transform="translate(181 25)"/>
</clipPath>
<clipPath id="clip5_5_149">
<rect width="40" height="74" fill="white" transform="translate(118)"/>
</clipPath>
</defs>
</svg>
